<svg xmlns="http://www.w3.org/2000/svg" viewBox="0 0 1164.21 549.95"><title>abstract-bg_2</title><g id="Layer_2" data-name="Layer 2"><g id="Layer_1-2" data-name="Layer 1"><path d="M318.59,550A31.94,31.94,0,1,0,286.65,518,32,32,0,0,0,318.59,550Zm0-53.42A21.48,21.48,0,1,1,297.11,518,21.5,21.5,0,0,1,318.59,496.53Z" style="fill:#006cff"/><path d="M573.05,356c-3.35.15-76.38-6.5-112.38,80.46-29.25,70.63-78.87-27.81-186.23,12.84C219.86,470,102.2,529.46,38.89,448.92s68.79-158.22,96.3-186.47,58.4-60.82,83.54-140.16,24.11-91.37,52.11-105.65c15.31-7.8,36-23.08,154.61,79.34s157.39-30.53,214.22,60.48C659.36,188,777.31,346.6,573.05,356Z" style="fill:#30bf78"/><path d="M99,261.59c-32,17-71.14,18.15-74.8-2.21-3-16.55,31.6-16.66,56.71-42.8,24.5-25.52,48.29-34.2,59.24-18.88C152.07,214.34,131.05,244.56,99,261.59Z" style="fill:#30bf78"/><rect x="239.83" y="106.45" width="6.98" height="210.02" rx="3.49" transform="translate(-78.26 233.99) rotate(-45)" style="fill:#006cff"/><rect x="138.05" y="56.03" width="6.98" height="210.02" rx="3.49" transform="translate(-72.41 147.25) rotate(-45)" style="fill:#006cff"/><circle cx="10.95" cy="10.95" r="10.95" style="fill:#30bf78"/><path d="M845.62,0a31.94,31.94,0,1,0,31.94,31.94A32,32,0,0,0,845.62,0Zm0,53.42A21.48,21.48,0,1,1,867.1,31.94,21.5,21.5,0,0,1,845.62,53.42Z" style="fill:#30bf78"/><path d="M591.16,194c3.35-.15,76.38,6.5,112.38-80.46,29.25-70.63,78.87,27.81,186.23-12.84C944.35,80,1062,20.49,1125.32,101S1056.54,259.25,1029,287.5s-58.4,60.82-83.54,140.16S921.37,519,893.37,533.31c-15.3,7.8-36,23.08-154.61-79.34S581.37,484.5,524.54,393.49C504.85,362,386.9,203.35,591.16,194Z" style="fill:#006cff"/><path d="M1065.18,288.36c32-17,71.15-18.15,74.8,2.21,3,16.55-31.6,16.66-56.71,42.8-24.5,25.52-48.29,34.2-59.24,18.89C1012.14,335.61,1033.16,305.39,1065.18,288.36Z" style="fill:#006cff"/><rect x="917.4" y="233.48" width="6.98" height="210.02" rx="3.49" transform="translate(30.37 750.31) rotate(-45)" style="fill:#30bf78"/><rect x="1019.18" y="283.9" width="6.98" height="210.02" rx="3.49" transform="translate(24.53 837.05) rotate(-45)" style="fill:#30bf78"/><circle cx="1153.26" cy="539" r="10.95" style="fill:#006cff"/></g></g></svg>