<svg width="95" height="100" viewBox="0 0 95 100" fill="none" xmlns="http://www.w3.org/2000/svg">
<path d="M50 4.98343C50 2.23116 52.1493 0 54.8005 0H90.1995C92.8507 0 95 2.23116 95 4.98343V47H54.8005C52.1493 47 50 44.4835 50 41.7313V4.98343Z" fill="#032B40"/>
<path d="M95 47V97.505C95 100.208 91.4346 100.977 90.3979 98.497L73.0425 46.7147L95 47Z" fill="#032B40"/>
<path d="M0 4.98343C0 2.23116 2.14926 0 4.80051 0H40.1995C42.8507 0 45 2.23116 45 4.98343V47H4.80051C2.14926 47 0 44.4835 0 41.7313V4.98343Z" fill="#032B40"/>
<path d="M45 47V97.505C45 100.208 41.4346 100.977 40.3979 98.497L23.0425 46.7147L45 47Z" fill="#032B40"/>
</svg>
