<svg xmlns="http://www.w3.org/2000/svg" viewBox="0 0 1164.21 549.95"><title>abstract-bg_1</title><g id="Layer_2" data-name="Layer 2"><g id="Layer_1-2" data-name="Layer 1"><path d="M845.62,550A31.94,31.94,0,1,1,877.56,518,32,32,0,0,1,845.62,550Zm0-53.42A21.48,21.48,0,1,0,867.1,518,21.5,21.5,0,0,0,845.62,496.53Z" style="fill:#006cff"/><path d="M591.16,356c3.35.15,76.38-6.5,112.38,80.46,29.25,70.63,78.87-27.81,186.23,12.84,54.58,20.66,172.24,80.16,235.55-.38S1056.54,290.7,1029,262.45s-58.4-60.82-83.54-140.16S921.37,30.92,893.37,16.64c-15.3-7.8-36-23.08-154.61,79.34S581.37,65.45,524.54,156.46C504.85,188,386.9,346.6,591.16,356Z" style="fill:#30bf78"/><path d="M1065.18,261.59c32,17,71.15,18.15,74.8-2.21,3-16.55-31.6-16.66-56.71-42.8-24.5-25.52-48.29-34.2-59.24-18.88C1012.14,214.34,1033.16,244.56,1065.18,261.59Z" style="fill:#30bf78"/><rect x="815.88" y="207.97" width="210.02" height="6.98" rx="3.49" transform="translate(120.2 713.1) rotate(-45)" style="fill:#006cff"/><rect x="917.66" y="157.55" width="210.02" height="6.98" rx="3.49" transform="translate(185.66 770.3) rotate(-45)" style="fill:#006cff"/><circle cx="1153.26" cy="10.95" r="10.95" style="fill:#30bf78"/><path d="M318.59,0a31.94,31.94,0,1,1-31.94,31.94A32,32,0,0,1,318.59,0Zm0,53.42a21.48,21.48,0,1,0-21.48-21.48A21.5,21.5,0,0,0,318.59,53.42Z" style="fill:#30bf78"/><path d="M573.05,194c-3.35-.15-76.38,6.5-112.38-80.46-29.25-70.63-78.87,27.81-186.23-12.84C219.86,80,102.2,20.49,38.89,101s68.79,158.22,96.3,186.47,58.4,60.82,83.54,140.16S242.84,519,270.84,533.31c15.31,7.8,36,23.08,154.61-79.34s157.39,30.53,214.22-60.48C659.36,362,777.31,203.35,573.05,194Z" style="fill:#006cff"/><path d="M99,288.36c-32-17-71.14-18.15-74.8,2.21-3,16.55,31.6,16.66,56.71,42.8,24.5,25.52,48.29,34.2,59.24,18.89C152.07,335.61,131.05,305.39,99,288.36Z" style="fill:#006cff"/><rect x="138.31" y="335" width="210.02" height="6.98" rx="3.49" transform="translate(-168.08 271.19) rotate(-45)" style="fill:#30bf78"/><rect x="36.53" y="385.42" width="210.02" height="6.98" rx="3.49" transform="translate(-233.55 214) rotate(-45)" style="fill:#30bf78"/><circle cx="10.95" cy="539" r="10.95" style="fill:#006cff"/></g></g></svg>