<svg width="700" height="700" viewBox="0 0 700 700" fill="none" xmlns="http://www.w3.org/2000/svg">
<g clip-path="url(#clip0)">
<path d="M191.565 547.686C202.147 547.686 210.746 539.062 210.746 528.448C210.746 517.834 202.147 509.21 191.565 509.21C180.983 509.21 172.385 517.834 172.385 528.448C172.385 539.062 180.983 547.686 191.565 547.686ZM191.565 515.422C198.66 515.422 204.492 521.211 204.492 528.388C204.492 535.504 198.72 541.354 191.565 541.354C184.47 541.354 178.638 535.564 178.638 528.388C178.638 521.272 184.41 515.422 191.565 515.422Z" fill="#006CFF"/>
<path d="M344.528 430.691C342.544 430.812 298.591 426.771 276.946 479.238C259.388 521.815 229.505 462.473 164.989 486.957C132.159 499.441 61.4499 535.323 23.3894 486.716C-14.6711 438.169 64.7569 391.311 81.2918 374.244C97.8268 357.178 116.406 337.578 131.498 289.695C146.65 241.932 145.989 234.635 162.824 226.011C172.024 221.307 184.47 212.08 255.781 273.834C327.092 335.588 350.421 255.44 384.573 310.319C396.478 329.376 467.368 425.023 344.528 430.691Z" fill="#30BF78"/>
<path d="M59.5258 373.762C40.2851 384.014 16.7754 384.677 14.5507 372.435C12.7468 362.424 33.5508 362.364 48.6427 346.624C63.3739 331.246 77.6842 325.999 84.2381 335.226C91.4533 345.237 78.7665 363.51 59.5258 373.762Z" fill="#30BF78"/>
<path d="M190.964 388.296C190.122 389.14 188.799 389.14 188.018 388.296L101.675 301.696C100.833 300.851 100.833 299.525 101.675 298.741C102.517 297.896 103.839 297.896 104.621 298.741L190.964 385.341C191.745 386.125 191.745 387.452 190.964 388.296Z" fill="#006CFF"/>
<path d="M129.754 357.901C128.912 358.746 127.59 358.746 126.808 357.901L40.4655 271.301C39.6237 270.457 39.6237 269.13 40.4655 268.346C41.3073 267.502 42.6301 267.502 43.4117 268.346L129.754 354.946C130.536 355.73 130.536 357.057 129.754 357.901Z" fill="#006CFF"/>
<path d="M6.55374 229.267C2.90094 229.267 -0.0602417 226.297 -0.0602417 222.634C-0.0602417 218.97 2.90094 216 6.55374 216C10.2065 216 13.1677 218.97 13.1677 222.634C13.1677 226.297 10.2065 229.267 6.55374 229.267Z" fill="#30BF78"/>
<path d="M508.435 216C497.853 216 489.254 224.624 489.254 235.238C489.254 245.852 497.853 254.476 508.435 254.476C519.017 254.476 527.615 245.852 527.615 235.238C527.615 224.624 519.017 216 508.435 216ZM508.435 248.204C501.34 248.204 495.508 242.414 495.508 235.238C495.508 228.061 501.28 222.272 508.435 222.272C515.59 222.272 521.362 228.061 521.362 235.238C521.362 242.414 515.59 248.204 508.435 248.204Z" fill="#30BF78"/>
<path d="M355.411 332.995C357.396 332.874 401.349 336.915 422.994 284.448C440.551 241.872 470.435 301.213 534.951 276.729C567.78 264.245 638.55 228.363 676.611 276.91C714.671 325.456 635.243 372.315 618.708 389.381C602.173 406.448 583.594 426.048 568.502 473.931C553.41 521.815 554.011 529.051 537.176 537.675C527.976 542.379 515.53 551.606 444.219 489.852C372.908 428.098 349.579 508.246 315.427 453.367C303.522 434.249 232.632 338.664 355.411 332.995Z" fill="#006CFF"/>
<path d="M640.474 389.924C659.715 379.672 683.225 379.009 685.449 391.251C687.253 401.262 666.449 401.322 651.357 417.062C636.626 432.44 622.316 437.687 615.762 428.46C608.547 418.389 621.233 400.176 640.474 389.924Z" fill="#006CFF"/>
<path d="M509.036 375.33C509.878 374.486 511.201 374.486 511.982 375.33L598.325 461.93C599.167 462.774 599.167 464.101 598.325 464.885C597.483 465.729 596.16 465.729 595.379 464.885L509.036 378.285C508.255 377.501 508.255 376.174 509.036 375.33Z" fill="#30BF78"/>
<path d="M570.246 405.785C571.087 404.94 572.41 404.94 573.192 405.785L659.534 492.325C660.376 493.169 660.376 494.496 659.534 495.28C658.693 496.124 657.37 496.124 656.588 495.28L570.246 408.679C569.404 407.895 569.404 406.569 570.246 405.785Z" fill="#30BF78"/>
<path d="M693.386 547.686C689.733 547.686 686.772 544.716 686.772 541.052C686.772 537.389 689.733 534.419 693.386 534.419C697.039 534.419 700 537.389 700 541.052C700 544.716 697.039 547.686 693.386 547.686Z" fill="#006CFF"/>
</g>
<path d="M677.766 0C690.033 0 700 9.99855 700 22.3045C700 34.6104 690.033 44.6089 677.766 44.6089C665.498 44.6089 655.531 34.6104 655.531 22.3045C655.531 9.99855 665.429 0 677.766 0ZM677.766 37.3373C685.99 37.3373 692.751 30.6249 692.751 22.3045C692.751 13.984 686.06 7.27168 677.766 7.27168C669.471 7.27168 662.78 13.984 662.78 22.3045C662.78 30.6249 669.471 37.3373 677.766 37.3373Z" fill="#30BF78"/>
<path d="M431.961 86.0233C423.146 86.0233 416 78.8547 416 70.0117C416 61.1687 423.146 54 431.961 54C440.776 54 447.923 61.1687 447.923 70.0117C447.923 78.8547 440.776 86.0233 431.961 86.0233Z" fill="#30BF78"/>
<path d="M284 196C279.582 196 276 192.418 276 188C276 183.582 279.582 180 284 180C288.418 180 292 183.582 292 188C292 192.418 288.418 196 284 196Z" fill="#006CFF"/>
<path d="M637.12 195.519C612.795 195.519 593 175.661 593 151.259C593 126.857 612.795 107 637.12 107C661.445 107 681.24 126.857 681.24 151.259C681.24 175.661 661.445 195.519 637.12 195.519ZM637.12 121.473C620.741 121.473 607.428 134.828 607.428 151.259C607.428 167.691 620.741 181.045 637.12 181.045C653.5 181.045 666.743 167.621 666.743 151.259C666.743 134.898 653.43 121.473 637.12 121.473Z" fill="#006CFF"/>
<path d="M349.35 699.519C330.246 699.519 314.7 683.924 314.7 664.759C314.7 645.595 330.246 630 349.35 630C368.454 630 384 645.595 384 664.759C384 683.924 368.454 699.519 349.35 699.519ZM349.35 641.367C336.486 641.367 326.031 651.855 326.031 664.759C326.031 677.664 336.486 688.152 349.35 688.152C362.214 688.152 372.614 677.609 372.614 664.759C372.614 651.91 362.159 641.367 349.35 641.367Z" fill="#30BF78"/>
<path d="M643.667 309.382C639.433 309.382 636 305.939 636 301.691C636 297.443 639.433 294 643.667 294C647.901 294 651.334 297.443 651.334 301.691C651.334 305.939 647.901 309.382 643.667 309.382Z" fill="#006CFF"/>
<defs>
<clipPath id="clip0">
<rect width="700" height="331.686" transform="matrix(-1 0 0 1 700 216)" fill="white"/>
</clipPath>
</defs>
</svg>
